<?xml version="1.0" standalone="no"?><!DOCTYPE svg PUBLIC "-//W3C//DTD SVG 1.1//EN" "http://www.w3.org/Graphics/SVG/1.1/DTD/svg11.dtd"><svg t="1585406402839" class="icon" viewBox="0 0 1024 1024" version="1.1" xmlns="http://www.w3.org/2000/svg" p-id="2673" xmlns:xlink="http://www.w3.org/1999/xlink" width="128" height="128"><defs><style type="text/css"></style></defs><path d="M305.7 50.5C369 38.2 437.7 32 512 32c74.3 0 143 6.2 206.3 18.5s113.3 29 150 50.2 55.2 43.9 55.2 68.6v68.6c0 24.7-18.4 47.5-55.2 68.6-36.8 21.1-86.8 37.8-150 50.2C655 368.8 586.3 375 512 375c-74.3 0-143-6.2-206.3-18.5-63.2-12.2-113.3-29-150-50.2-36.8-21.1-55.2-43.9-55.2-68.6V169c0-24.7 18.4-47.5 55.2-68.6 36.9-20.9 86.8-37.6 150-49.9z m-30.9 369.8c73.6 15.4 152.6 23 237.2 23s163.7-7.7 237.2-23 131.6-38 174.1-68v91.1c0 24.7-18.4 47.5-55.2 68.6s-86.8 37.8-150 50.2C655 574.4 586.3 580.5 512 580.5c-74.3 0-143-6.2-206.3-18.5-63.2-12.2-113.3-29-150-50.2-36.8-21.1-55.2-43.9-55.2-68.6v-91.1c42.6 30.3 100.7 53 174.3 68.2z m0 205.8c73.6 15.4 152.6 23 237.2 23s163.7-7.7 237.2-23 131.6-38 174.1-68v91.1c0 24.7-18.4 47.5-55.2 68.6s-86.8 37.8-150 50.2-131.8 18.4-206.1 18.4-143-6.2-206.3-18.5c-63.2-12.2-113.2-29-150-50.2-36.8-21.1-55.2-43.9-55.2-68.6V558c42.6 30.1 100.7 52.8 174.3 68.1z m0 205.7c73.6 15.4 152.6 23 237.2 23s163.7-7.7 237.2-23 131.6-38 174.1-68v91.1c0 24.7-18.4 47.5-55.2 68.6s-86.8 37.8-150 50.2S586.3 992 512 992c-74.3 0-143-6.2-206.3-18.5-63.2-12.2-113.3-29-150-50.2-36.8-21.1-55.2-43.9-55.2-68.6v-91.1c42.6 30.2 100.7 52.8 174.3 68.2z" p-id="2674"></path></svg>