<?xml version="1.0" standalone="no"?><!DOCTYPE svg PUBLIC "-//W3C//DTD SVG 1.1//EN" "http://www.w3.org/Graphics/SVG/1.1/DTD/svg11.dtd"><svg t="1585406829102" class="icon" viewBox="0 0 1024 1024" version="1.1" xmlns="http://www.w3.org/2000/svg" p-id="12192" xmlns:xlink="http://www.w3.org/1999/xlink" width="128" height="128"><defs><style type="text/css"></style></defs><path d="M670.2604184375 972.317991875C646.9623434375001 952.8368196875001 643.94979125 920.7029290625001 643.94979125 863.062761875V625.2719665625c0-12.853556249999999-12.853556249999999-25.7071134375-25.7071134375-25.7071134375H406.1589959375c-12.853556249999999 0-25.7071134375 12.853556249999999-25.7071134375 25.7071134375v237.7907953125c0 57.8410040625-6.426778124999999 89.974895625-25.707112499999997 109.25523-19.280334375 19.280334375-44.9874478125 19.280334375-70.69456125 19.280334375H136.23431C91.24686218749997 991.59832625 52.686192500000004 953.0376565624999 52.686192500000004 908.05020875V400.3347284375c0-25.7071134375 12.853556249999999-51.4142259375 32.1338915625-70.69456125L464 46.861924999999985c25.7071134375-19.280334375 70.6945603125-19.280334375 96.40167375 0l379.17991593749997 282.77824218750004c19.280334375 19.280334375 32.1338915625 44.9874478125 32.1338915625 70.69456125v507.7154803125c0 44.9874478125-38.560669687499995 83.5481175-83.5481175 83.5481175H721.0711296874999c24.662761875 0-27.51263625 0.200836875-50.810711250000004-19.280334375zM624.6694559375 541.7238490625c44.9874478125 0 83.5481175 38.560669687499995 83.5481175 83.5481175v282.77824218750004c0 12.1044346875 11.176569375 25.7071134375 25.707112499999997 25.7071134375h160.6694559375c12.853556249999999 0 25.7071134375-12.853556249999999 25.7071134375-25.7071134375V400.3347284375c0-6.426778124999999-6.426778124999999-19.280334375-12.853556249999999-19.2803353125L528.2677821875 98.2761509375c-6.426778124999999-6.426778124999999-19.280334375-6.426778124999999-25.707112499999997 0l-385.606695 282.77824218750004c-6.426778124999999 6.426778124999999-6.426778124999999 12.853556249999999-6.426778124999999 19.2803353125v507.7154803125c0 12.853556249999999 12.853556249999999 25.7071134375 25.7071134375 25.7071134375h160.6694559375c13.5544771875 0 25.7071134375-12.6728034375 25.707112499999997-25.7071134375V625.2719665625c0-44.9874478125 32.1338915625-83.5481175 83.5481175-83.5481175h218.51046z" p-id="12193"></path></svg>