<?xml version="1.0" standalone="no"?><!DOCTYPE svg PUBLIC "-//W3C//DTD SVG 1.1//EN" "http://www.w3.org/Graphics/SVG/1.1/DTD/svg11.dtd"><svg t="1585394810846" class="icon" viewBox="0 0 1024 1024" version="1.1" xmlns="http://www.w3.org/2000/svg" p-id="707" xmlns:xlink="http://www.w3.org/1999/xlink" width="128" height="128"><defs><style type="text/css"></style></defs><path d="M461.63867162 854.76025415a294.62695338 294.62695338 0 0 0 103.20117213 51.54785107c2.09619141 0.56689478 10.30957006 0.94921875 22.46484375 1.18652343h-312.58300807a26.38037109 26.38037109 0 0 1 0-52.73437448H461.63867162zM577.9179685 604.2851565c17.57373072 0 26.36718725 5.78759791 26.367188 17.34960912l0.01318309 145.27001954c14.8842776 5.37890625 25.15429689 15.17431615 26.26171875 26.52539037L630.65234375 795.44726537l-0.07910156 1.80615285c-0.98876953 11.44335963-11.29833959 21.31787109-26.2749026 26.73632813L604.2851565 850.62060522c0 10.94238256-7.88378932 16.71679662-23.66455103 17.2836914L577.9179685 867.95703125c-17.57373072 0-26.36718725-5.78759791-26.36718725-17.34960912v-26.6044927c-14.89746068-5.3920901-25.18066381-15.1875-26.2749026-26.53857421L525.18359399 795.44726537l0.07910158-1.80615209c0.98876953-11.44335963 11.31152345-21.33105494 26.28808568-26.74951197V621.63476563c0-10.95556641 7.88378932-16.72998047 23.66455103-17.29687526L577.9179685 604.2851565z m118.65234375 0c17.57373072 0 26.36718725 5.78759791 26.367188 17.34960912l0.01318309 13.43408178c14.8842776 5.37890625 25.15429689 15.17431615 26.26171875 26.52539113L749.3046875 663.61132838l-0.07910156 1.80615209c-0.98876953 11.44335963-11.29833959 21.31787109-26.2749026 26.73632812L722.93750025 850.62060522c0 10.94238256-7.88378932 16.71679662-23.66455103 17.2836914L696.57031225 867.95703125c-17.57373072 0-26.36718725-5.78759791-26.36718725-17.34960912V692.16699244c-14.89746068-5.3920901-25.18066381-15.1875-26.2749026-26.53857422L643.83593775 663.61132838l0.07910157-1.80615285c0.98876953-11.44335963 11.31152345-21.33105494 26.28808568-26.74951121v-13.4208987c0-10.95556641 7.88378932-16.72998047 23.66455103-17.29687525L696.57031225 604.2851565z m131.83593774 0c17.57373072 0 26.36718725 5.78759791 26.36718726 17.34960912l0.01318384 145.27001954c14.8842776 5.37890625 25.15429689 15.17431615 26.26171875 26.52539037L881.14062525 795.44726537l-0.07910156 1.80615285c-0.98876953 11.44335963-11.29833959 21.31787109-26.2749026 26.73632813L854.77343725 850.62060522c0 10.94238256-7.88378932 16.71679662-23.66455028 17.2836914L828.40625001 867.95703125c-17.57373072 0-26.36718725-5.78759791-26.36718726-17.34960912v-26.6044927c-14.89746068-5.3920901-25.18066381-15.1875-26.27490259-26.53857421L775.67187475 795.44726537l0.07910156-1.80615209c0.98876953-11.44335963 11.31152345-21.33105494 26.28808644-26.74951197V621.63476563c0-10.95556641 7.88378932-16.72998047 23.66455028-17.29687526L828.40625001 604.2851565zM775.65869166 116.4921875C848.41894531 116.4921875 907.5078125 171.6523435 907.5078125 239.49511719v309.37939478a4.02099584 4.02099584 0 0 0-0.76464869-1.23925806l-0.42187475-0.30322241-51.56103489-21.91113281v-52.28613281l1.1337888-9.94042994a30.82324244 30.82324244 0 0 0-1.10742188-12.31347683l-0.02636692-211.37255808C854.77343725 200.7617185 819.30957031 169.22656275 775.67187475 169.22656275H248.32812525c-43.65087865 0-79.1015625 31.50878881-79.1015625 70.26855444v439.48828125c0 38.74658178 35.45068385 70.26855443 79.1015625 70.26855443h184.89990234c2.75537084 1.18652345 4.54833984 3.75732422 4.69335913 6.59179738l-0.03955078 1.23925731-5.07568385 44.90332056H248.34130834C175.69970703 802.01269506 116.4921875 746.86572291 116.4921875 679.00976537V239.50830103C116.4921875 171.6523435 175.68652318 116.4921875 248.34130834 116.4921875H775.67187475z" p-id="708"></path></svg>