<?xml version="1.0" standalone="no"?><!DOCTYPE svg PUBLIC "-//W3C//DTD SVG 1.1//EN" "http://www.w3.org/Graphics/SVG/1.1/DTD/svg11.dtd"><svg t="1583549168946" class="icon" viewBox="0 0 1024 1024" version="1.1" xmlns="http://www.w3.org/2000/svg" p-id="19114" width="128" height="128" xmlns:xlink="http://www.w3.org/1999/xlink"><defs><style type="text/css"></style></defs><path d="M511.3 64.8c-247.4 0-448 200.6-448 448s200.6 448 448 448 448-200.6 448-448-200.5-448-448-448m251.3 733.1h-96.7c-18.6 0-33.8-15.1-33.8-33.6V678c0-18.5 15.2-33.6 33.8-33.6h25.8V537c-0.1-6.2-5.2-11.2-11.4-11.2H533.9v118.7h25.8c18.6 0 33.8 15.1 33.8 33.6v86.3c0 18.5-15.2 33.6-33.8 33.6H463c-18.6 0-33.8-15.1-33.8-33.6V678c0-18.5 15.2-33.6 33.8-33.6h25.8V525.8H342.2c-6.2 0.1-11.3 5.1-11.3 11.3v107.4h25.8c18.6 0 33.8 15.1 33.8 33.6v86.3c0 18.5-15.2 33.6-33.8 33.6H260c-18.6 0-33.8-15.1-33.8-33.6V678c0-18.5 15.2-33.6 33.8-33.6h25.8V537c0-30.8 25.3-55.8 56.3-55.9h146.7v-99.9H463c-18.6 0-33.8-15.1-33.8-33.6v-86.3c0-18.5 15.2-33.6 33.8-33.6h96.7c18.6 0 33.8 15.1 33.8 33.6v86.3c0 18.5-15.2 33.6-33.8 33.6h-25.8v99.9h146.5c31 0 56.3 25.1 56.4 55.8v107.6h25.8c18.7 0 33.8 15 33.8 33.6v86.3c0 18.4-15.2 33.5-33.8 33.5" fill="" p-id="19115"></path></svg>