<?xml version="1.0" standalone="no"?><!DOCTYPE svg PUBLIC "-//W3C//DTD SVG 1.1//EN" "http://www.w3.org/Graphics/SVG/1.1/DTD/svg11.dtd"><svg t="1585897418670" class="icon" viewBox="0 0 1024 1024" version="1.1" xmlns="http://www.w3.org/2000/svg" p-id="4822" xmlns:xlink="http://www.w3.org/1999/xlink" width="128" height="128"><defs><style type="text/css"></style></defs><path d="M896.8 64H127.2c-40.3 0-62.6 49.2-62.6 89.5v550.4c0 44.7 22.4 76.1 62.6 76.1h295.3v89.5h-85c-8.9 0-4.5 17.9-4.5 26.8V950c0 13.4-4.5 8.9 4.5 8.9H682c8.9 0 4.5 4.5 4.5-4.5v-53.7c0-8.9 4.5-26.8-4.5-26.8h-80.5v-89.5h295.3c44.7 0 62.6-31.3 62.6-76.1V153.5c0-40.3-22.3-89.5-62.6-89.5z m-85 371.4C731.2 538.3 628.3 600.9 512 600.9s-219.2-62.6-299.8-165.6c-4.5-8.9-4.5-22.4 0-26.8 80.5-102.9 183.5-170 299.8-170s219.2 62.6 299.8 165.6c4.5 8.9 4.5 22.3 0 31.3z" p-id="4823"></path><path d="M503.1 269.8c-80.5 4.5-143.2 67.1-147.7 147.7C350.9 511.4 427 592 520.9 583c76.1-4.5 143.2-67.1 147.7-147.7 4.5-93.9-71.6-170-165.5-165.5z m13.4 223.7c-40.3 4.5-71.6-31.3-71.6-71.6 0-31.3 26.8-58.2 62.6-62.6 40.3-4.5 71.6 31.3 71.6 71.6-4.5 31.3-31.3 58.2-62.6 62.6z" p-id="4824"></path></svg>