<?xml version="1.0" standalone="no"?><!DOCTYPE svg PUBLIC "-//W3C//DTD SVG 1.1//EN" "http://www.w3.org/Graphics/SVG/1.1/DTD/svg11.dtd"><svg t="1585406834220" class="icon" viewBox="0 0 1157 1024" version="1.1" xmlns="http://www.w3.org/2000/svg" p-id="12326" xmlns:xlink="http://www.w3.org/1999/xlink" width="144.625" height="128"><defs><style type="text/css"></style></defs><path d="M0 1024v-60.238h86.817V120.476C86.817 53.96 138.641 0 202.574 0h405.148c63.933 0 115.756 53.96 115.756 120.476v240.951h231.513c63.934 0 115.757 53.916 115.757 120.476v481.86h86.817V1024H0z m665.6-903.524c0-33.302-25.912-60.238-57.878-60.238H202.574c-31.967 0-57.878 26.936-57.878 60.238v843.286H665.6V120.476z m347.27 361.427c0-33.302-25.912-60.238-57.879-60.238H723.478v542.097h289.392V481.903zM954.99 632.476H781.357v-60.238H954.99v60.238z m0 180.714H781.357v-60.238H954.99v60.238zM376.21 331.286H202.574v-60.238h173.635v60.238z m0 180.714H202.574v-60.238h173.635V512z m0 180.714H202.574v-60.238h173.635v60.238z m231.513-361.428H434.087v-60.238h173.635v60.238z m0 180.714H434.087v-60.238h173.635V512z m0 180.714H434.087v-60.238h173.635v60.238z" p-id="12327"></path></svg>