<?xml version="1.0" standalone="no"?><!DOCTYPE svg PUBLIC "-//W3C//DTD SVG 1.1//EN" "http://www.w3.org/Graphics/SVG/1.1/DTD/svg11.dtd"><svg t="1585406841947" class="icon" viewBox="0 0 1235 1024" version="1.1" xmlns="http://www.w3.org/2000/svg" p-id="12460" xmlns:xlink="http://www.w3.org/1999/xlink" width="154.375" height="128"><defs><style type="text/css"></style></defs><path d="M1132.544 1024H102.4a102.4 102.4 0 0 1-102.4-102.4V102.4a102.4 102.4 0 0 1 102.4-102.4h1030.144a102.4 102.4 0 0 1 102.4 102.4v819.2a102.4 102.4 0 0 1-102.4 102.4z m0-921.6H102.4v819.2h1030.144V102.4z m-363.008 409.6a51.2 51.2 0 0 1 51.2-51.2h156.672a51.2 51.2 0 0 1 0 102.4h-156.672a51.2 51.2 0 0 1-51.2-51.2z m0-204.8a51.2 51.2 0 0 1 51.2-51.2h207.872a51.2 51.2 0 0 1 51.2 51.2 51.2 51.2 0 0 1-51.2 51.2h-207.872a51.2 51.2 0 0 1-51.2-51.2zM460.8 614.4a204.8 204.8 0 0 0-204.8 204.8H153.6a305.9712 305.9712 0 0 1 159.744-267.9296 204.8 204.8 0 1 1 294.912 0A305.9712 305.9712 0 0 1 768 819.2h-102.4a204.8 204.8 0 0 0-204.8-204.8z m0-307.2a102.4 102.4 0 1 0 102.4 102.4 102.4 102.4 0 0 0-102.4-102.4z" p-id="12461"></path></svg>