<?xml version="1.0" standalone="no"?><!DOCTYPE svg PUBLIC "-//W3C//DTD SVG 1.1//EN" "http://www.w3.org/Graphics/SVG/1.1/DTD/svg11.dtd"><svg t="1583546721247" class="icon" viewBox="0 0 1024 1024" version="1.1" xmlns="http://www.w3.org/2000/svg" p-id="14566" xmlns:xlink="http://www.w3.org/1999/xlink" width="128" height="128"><defs><style type="text/css"></style></defs><path d="M512 872.64A360.32 360.32 0 1 0 152.32 512 360.32 360.32 0 0 0 512 872.64zM512 928a416 416 0 1 1 416-416 416 416 0 0 1-416 416z" p-id="14567"></path><path d="M512 936A423.68 423.68 0 1 1 936 512 424.32 424.32 0 0 1 512 936z m0-832A407.68 407.68 0 1 0 920 512 408.32 408.32 0 0 0 512 104.64z m0 776A368.32 368.32 0 1 1 880.64 512 368.64 368.64 0 0 1 512 880.64zM512 160a352 352 0 1 0 352 352A352 352 0 0 0 512 160z" p-id="14568"></path><path d="M563.2 605.76v-22.72q0-87.36 83.52-89.28c54.08 0 81.92 32 83.2 89.28v22.72a76.16 76.16 0 0 1-83.2 81.6 75.2 75.2 0 0 1-83.52-81.6z m108.8-13.44c0-39.04-7.04-57.92-24.64-56.64s-27.84 18.88-26.56 56.64 7.36 60.16 26.56 58.88 24.64-16.96 24.64-58.88zM294.08 452.16v-22.72c0-58.24 27.84-88 83.2-89.28s82.24 32 83.52 89.28v22.72a78.08 78.08 0 0 1-83.52 85.44c-53.12-1.28-80.64-29.76-83.2-85.44z m109.76-13.44c0-39.04-8.64-58.56-26.56-58.56s-27.2 18.24-24.64 58.56c-2.56 40.64 5.76 59.52 24.64 56.96s26.56-17.6 26.56-56.96z m5.76 227.52l151.68-306.88c10.24-24 22.08-34.88 36.16-32a30.08 30.08 0 0 1 22.72 18.88 55.36 55.36 0 0 1-5.76 20.8l-151.68 307.2c-12.8 20.16-24.64 29.76-36.16 28.48a32 32 0 0 1-22.72-16.96 58.24 58.24 0 0 1 5.76-19.52z" p-id="14569"></path></svg>