<?xml version="1.0" standalone="no"?><!DOCTYPE svg PUBLIC "-//W3C//DTD SVG 1.1//EN" "http://www.w3.org/Graphics/SVG/1.1/DTD/svg11.dtd"><svg t="1585535979501" class="icon" viewBox="0 0 1024 1024" version="1.1" xmlns="http://www.w3.org/2000/svg" p-id="1727" xmlns:xlink="http://www.w3.org/1999/xlink" width="128" height="128"><defs><style type="text/css"></style></defs><path d="M512 192c194.4 0 352 157.6 352 352s-157.6 352-352 352S160 738.4 160 544 317.6 192 512 192z m0 64a288 288 0 1 0 0 576 288 288 0 0 0 0-576z m32 128v160h160v64h-224v-224h64zM259.872 110.848L305.152 156.16l-181.024 181.024L78.848 291.84l181.024-181.024z m504.256 0l181.024 181.024-45.28 45.28-181.024-181.024 45.28-45.28z" p-id="1728"></path></svg>