<?xml version="1.0" standalone="no"?><!DOCTYPE svg PUBLIC "-//W3C//DTD SVG 1.1//EN" "http://www.w3.org/Graphics/SVG/1.1/DTD/svg11.dtd"><svg t="1585406821759" class="icon" viewBox="0 0 1024 1024" version="1.1" xmlns="http://www.w3.org/2000/svg" p-id="12056" xmlns:xlink="http://www.w3.org/1999/xlink" width="128" height="128"><defs><style type="text/css"></style></defs><path d="M176.64 140.8h81.92c28.16 0 51.2-23.04 51.2-51.2s-23.04-51.2-51.2-51.2H161.28c-46.08 0-89.6 30.72-89.6 79.36v785.92c0 48.64 43.52 79.36 89.6 79.36h166.4c28.16 0 51.2-23.04 51.2-51.2s-23.04-51.2-51.2-51.2H176.64V140.8zM419.84 140.8h128c28.16 0 51.2-23.04 51.2-51.2s-23.04-51.2-51.2-51.2h-128c-28.16 0-51.2 23.04-51.2 51.2s23.04 51.2 51.2 51.2zM727.04 143.36h61.44V332.8c0 28.16 23.04 51.2 51.2 51.2s51.2-23.04 51.2-51.2V122.88c0-46.08-38.4-79.36-89.6-79.36h-74.24c-28.16 0-51.2 23.04-51.2 51.2s23.04 48.64 51.2 48.64z" p-id="12057"></path><path d="M632.32 343.04c-176.64 0-320 143.36-320 320s143.36 320 320 320 320-143.36 320-320-143.36-320-320-320z m0 537.6c-120.32 0-217.6-97.28-217.6-217.6s97.28-217.6 217.6-217.6 217.6 97.28 217.6 217.6-97.28 217.6-217.6 217.6z" p-id="12058"></path><path d="M727.04 609.28h-58.88l-38.4-87.04c-10.24-25.6-40.96-38.4-66.56-28.16-25.6 10.24-38.4 40.96-28.16 66.56l64 151.04h128c28.16 0 51.2-23.04 51.2-51.2s-23.04-51.2-51.2-51.2zM261.12 204.8c-28.16 0-51.2 23.04-51.2 51.2s20.48 51.2 51.2 51.2h453.12c28.16 0 51.2-23.04 51.2-51.2s-23.04-51.2-51.2-51.2H261.12z" p-id="12059"></path></svg>